<svg id="turbo-logo-branco" xmlns="http://www.w3.org/2000/svg" width="984.646" height="173.978" viewBox="0 0 984.646 173.978">
  <path id="Caminho_1" data-name="Caminho 1" d="M56.69,133.951v2.623c-.181,7.96-4.7,13.115-11.759,13.115s-11.578-5.337-11.578-13.115V68.284h-18.9C7.123,68.1,2.6,64.033,2.6,57.611S7.3,46.938,14.449,46.938H75.594c7.146.181,11.939,4.251,11.939,10.673S82.649,68.284,75.594,68.284H56.69v65.758ZM113.4,112.334c0,6.06.271,7.96,1.357,10.4a12.5,12.5,0,0,0,11.125,7.146c7.055,0,12.3-5.789,12.3-13.115V86.736c.181-6.874,4.161-11.306,10.221-11.306s10.04,4.613,10.04,11.306v27.859c0,9.95-2.171,16.914-7.146,23.155a29.8,29.8,0,0,1-5.156,5.156,33.456,33.456,0,0,1-6.06,3.889,32.254,32.254,0,0,1-6.874,2.442,29.736,29.736,0,0,1-7.236.9,32.56,32.56,0,0,1-8.412-1.176,30.109,30.109,0,0,1-7.869-3.256,35.018,35.018,0,0,1-6.874-5.156,31.622,31.622,0,0,1-5.337-6.6c-2.894-4.7-4.432-11.939-4.432-19.809V86.736c.181-6.874,3.98-11.306,10.04-11.306s10.221,4.613,10.221,11.306v25.6Zm94.973-37.356c7.146,0,13.115,5.608,13.115,12.482a11.987,11.987,0,0,1-12.12,12.03c-2.894,0-3.347-.271-7.327-2.623l-.9-.543a5,5,0,0,0-.995-.452,4.8,4.8,0,0,1-.995-.271,6.593,6.593,0,0,0-1.085-.09c-3.166,0-4.432,2.623-4.432,9.316v33.557c-.181,6.874-3.98,11.306-10.04,11.306s-10.221-4.613-10.221-11.306V90.173c0-5.97.181-7.327,1.357-9.407a9.687,9.687,0,0,1,8.683-5.337c4.161,0,7.327,2.171,9.316,5.97a23.9,23.9,0,0,1,15.738-6.422Zm59.788,0c19.809,0,34.733,16.191,34.733,37.537s-14.924,37.627-35.185,37.627-14.2-2.171-20.713-7.779c-1.719,5.065-4.7,7.327-9.588,7.327s-6.874-1.719-8.231-4.432c-1.266-2.171-1.538-3.98-1.538-8.864V58.244c.181-6.874,4.161-11.306,10.221-11.306S247.9,51.46,247.9,58.244V82.033A30.768,30.768,0,0,1,268.163,74.977ZM247.45,112.514a18.232,18.232,0,0,0,1.266,6.6,17.047,17.047,0,0,0,9.226,9.316,16.593,16.593,0,0,0,6.6,1.357,17.186,17.186,0,1,0,.181-34.371h-.271a17.14,17.14,0,0,0-17.1,17.1Zm136.4.271c0,20.442-17.1,37.356-37.808,37.356s-37.989-16.733-37.989-36.9a38.03,38.03,0,0,1,2.533-14.563,37.525,37.525,0,0,1,20.08-20.894,38.21,38.21,0,0,1,14.472-3.166A37.819,37.819,0,0,1,383.759,111.7v1.085Zm-54.994.09c0,8.955,7.779,16.643,17.186,16.643a17.184,17.184,0,0,0,2.442-34.281h-2.261c-9.859,0-17.367,7.688-17.367,17.728ZM620.2,45.4c12.392,0,23.336,4.07,33.2,12.211,5.97,4.884,8.231,8.412,8.231,12.934a11.31,11.31,0,0,1-11.306,11.306h-.09c-3.166,0-5.608-1.085-8.5-3.618l-2.442-2.261a29.911,29.911,0,0,0-9.859-5.7,29.5,29.5,0,0,0-11.216-1.447,29.034,29.034,0,0,0-11.035,2.985,30.309,30.309,0,0,0-8.955,6.965,29.911,29.911,0,0,0-5.7,9.859,29.5,29.5,0,0,0-1.447,11.216,29.033,29.033,0,0,0,2.985,11.035,30.306,30.306,0,0,0,6.965,8.955,28.657,28.657,0,0,0,19.356,7.146c6.422,0,14.02-2.623,18-6.241l4.07-3.8a12.03,12.03,0,0,1,8.683-3.618,11.407,11.407,0,0,1,11.4,11.4c0,3.528-1.628,6.512-5.517,10.4A53.94,53.94,0,0,1,640.1,146.162a59.9,59.9,0,0,1-9.678,2.985,52.442,52.442,0,0,1-10.13.995c-28.854,0-52.642-23.789-52.642-52.461A52.442,52.442,0,0,1,620.016,45.4Zm50.381,15.105V58.244c.181-6.874,4.07-11.306,10.221-11.306s10.04,4.613,10.04,11.306v79.235c.181,7.6-3.618,12.211-10.04,12.211s-10.221-4.613-10.221-11.306Zm106.28,52.281c0,20.442-17.1,37.356-37.808,37.356s-37.989-16.733-37.989-36.9a38.032,38.032,0,0,1,2.533-14.563,37.525,37.525,0,0,1,20.08-20.894,38.209,38.209,0,0,1,14.472-3.166A37.819,37.819,0,0,1,776.768,111.7v1.085Zm-54.994.09c0,8.955,7.779,16.643,17.186,16.643a17.016,17.016,0,0,0,16.01-17.1,16.471,16.471,0,0,0-4.523-11.668,16.91,16.91,0,0,0-11.306-5.518c-9.859,0-17.366,7.688-17.366,17.728Zm85.024-.543c0,6.06.271,7.96,1.357,10.4a12.5,12.5,0,0,0,11.125,7.146c7.055,0,12.392-5.789,12.392-13.115V86.736c.181-6.874,4.07-11.306,10.221-11.306s10.04,4.613,10.04,11.306v27.859c0,9.95-2.171,16.914-7.146,23.155a29.8,29.8,0,0,1-5.156,5.156,33.467,33.467,0,0,1-6.06,3.889,32.253,32.253,0,0,1-6.874,2.442,31.52,31.52,0,0,1-15.648-.362,30.108,30.108,0,0,1-7.869-3.256,35.016,35.016,0,0,1-6.874-5.156,31.625,31.625,0,0,1-5.337-6.6c-2.894-4.7-4.432-11.939-4.432-19.809V86.646c.181-6.874,3.98-11.306,10.04-11.306s10.221,4.613,10.221,11.306v25.688Z" transform="translate(-2.6 -7.822)" fill="#fff"/>
  <path id="Caminho_2" data-name="Caminho 2" d="M430.2,184.632a22.866,22.866,0,0,1,2.8-3.8c13.115-13.115,26.231-26.14,39.437-39.256a5.787,5.787,0,0,1,4.794-2.08,5.462,5.462,0,0,1,4.161,3.075,5.164,5.164,0,0,1,.362,2.623,4.85,4.85,0,0,1-.995,2.442c-.452.543-.9.995-1.357,1.447-12.934,12.844-25.778,25.688-38.713,38.532-1.266,1.085-2.533,2.171-3.889,3.166H434.09a4.751,4.751,0,0,1-1.176-.724,8.6,8.6,0,0,1-1.085-.9,8.126,8.126,0,0,1-.814-1.176,12.364,12.364,0,0,1-.633-1.266v-2.08Z" transform="translate(-43.433 -16.805)" fill="#7ec741"/>
  <path id="Caminho_3" data-name="Caminho 3" d="M523.343,134.506c-1.719.724-3.166,1.447-4.7,1.99-6.331,2.171-12.211,1.266-17-3.437l-6.512-6.332-6.512-6.512q-3.166-3.166-6.332-6.422-3.166-3.347-6.332-6.6c-4.794-4.975-5.517-10.945-3.166-17.367.543-1.357,1.176-2.714,1.9-4.251-2.985-.271-5.7-.633-8.5-.9L441.3,82.226a4.854,4.854,0,0,1-4.342-3.347,5.014,5.014,0,0,1,1.357-5.608c6.151-6.06,12.211-12.12,18.362-18.271,4.7-4.7,9.5-9.5,14.291-14.2,12.03-11.759,28.673-14.924,44.14-8.231a2.214,2.214,0,0,0,2.714-.543C530.76,21.714,544.961,13.483,560.79,8.418,572.005,4.8,583.4,2.991,595.161,4.257a52.582,52.582,0,0,1,5.246.814c2.533.543,3.889,2.08,4.432,4.975,1.809,10.583.9,20.985-1.628,31.386-4.613,18.633-13.749,35-25.688,49.929a2.411,2.411,0,0,0-.543.814,2.819,2.819,0,0,0-.362.995,2.759,2.759,0,0,0,0,.995,2.848,2.848,0,0,0,.362.9c6.06,15.829,3.618,30.3-8.05,42.693-10.764,11.4-22.16,22.16-33.2,33.2a5.048,5.048,0,0,1-5.608,1.447c-2.261-.814-3.166-2.533-3.437-4.794l-2.985-32.2a2.637,2.637,0,0,0-.181-.814Zm9.949-17.186a1.324,1.324,0,0,0,.452-.271c23.336-15.377,41.517-35.276,53.366-60.783a2.139,2.139,0,0,0-.452-2.894q-15.331-15.331-30.572-30.753a1.8,1.8,0,0,0-.633-.543,2.04,2.04,0,0,0-.724-.362,2.283,2.283,0,0,0-.9,0,2.039,2.039,0,0,0-.724.362c-21.075,9.588-38.442,23.879-52.823,41.788-3.075,3.8-5.789,7.779-8.5,11.578l41.607,41.788Zm2.442,38.894a11.29,11.29,0,0,0,.9-.814c8.141-8.141,16.281-16.281,24.422-24.331a28.651,28.651,0,0,0,8.322-17.1,27.494,27.494,0,0,0-1.086-12.12,3.826,3.826,0,0,0-.633.452A159.716,159.716,0,0,1,534.016,128.9a2.118,2.118,0,0,0-.724,1.628c.362,4.342.724,8.683,1.176,13.025C534.83,147.622,535.282,151.783,535.735,156.215ZM453.153,73a16.405,16.405,0,0,0,1.719.271c7.959.814,15.919,1.538,23.879,2.352,1.085.09,1.357-.362,1.809-1.085a154.284,154.284,0,0,1,26.05-32.743c.271-.271.543-.633.814-.9-.09-.181-.181-.181-.181-.271l-.452-.181c-10.944-2.714-20.623-.181-28.673,7.688s-15.829,15.738-23.789,23.608C453.967,72.1,453.7,72.457,453.153,73ZM523.7,123.019C511.132,110.356,498.65,97.874,486.168,85.3c-1.176,2.442-2.442,5.065-3.618,7.688-1.357,3.075-.9,5.427,1.447,7.869s4.523,4.613,6.875,6.874c5.7,5.789,11.487,11.487,17.185,17.276,1.809,1.9,4.07,2.985,6.6,1.99C517.735,125.823,520.72,124.286,523.7,123.019Zm68.109-79.325c2.8-9.5,4.342-19.176,3.075-29.035-7.779-1.447-23.969.362-29.035,2.985l25.959,26.14Z" transform="translate(-44.045 -3.855)" fill="#7ec741"/>
  <path id="Caminho_4" data-name="Caminho 4" d="M497.414,157.2a6.1,6.1,0,0,1,4.884,3.437,5.119,5.119,0,0,1-1.176,5.789L490.54,177.009c-1.085.995-2.08,2.08-3.166,3.075a4.819,4.819,0,0,1-1.628,1.085,4.194,4.194,0,0,1-1.9.452,5.787,5.787,0,0,1-1.99-.362,4.816,4.816,0,0,1-1.628-1.085l-.09-.09a4.82,4.82,0,0,1-1.085-1.628,4.215,4.215,0,0,1,0-3.8,4.818,4.818,0,0,1,1.085-1.628l.09-.09c4.522-4.613,9.136-9.226,13.839-13.749.9-.9,2.261-1.266,3.437-1.9Z" transform="translate(-48.055 -18.498)" fill="#7ec741"/>
  <path id="Caminho_5" data-name="Caminho 5" d="M460.758,121.19c2.8.271,4.432,1.085,5.336,3.075a4.82,4.82,0,0,1-1.085,5.789c-2.08,2.171-4.251,4.251-6.331,6.332-2.352,2.352-4.7,4.7-7.146,7.055s-5.517,2.533-7.688.271-1.9-5.156.452-7.6c4.341-4.342,8.683-8.774,13.115-13.025a14.955,14.955,0,0,1,3.256-1.99Z" transform="translate(-44.594 -15.051)" fill="#7ec741"/>
  <path id="Caminho_6" data-name="Caminho 6" d="M553.162,86.786a16.644,16.644,0,1,1,16.824-16.462A16.6,16.6,0,0,1,553.162,86.786Zm0-10.13a6.423,6.423,0,1,0,.181-12.844,6.37,6.37,0,0,0-6.422,6.332,6.3,6.3,0,0,0,6.151,6.512h.091Z" transform="translate(-53.603 -8.595)" fill="#7ec741"/>
  <path id="Caminho_7" data-name="Caminho 7" d="M1007.494,85.155c-4.613-3.437-12.392-7.055-20.261-7.055-19.808,0-34.733,16.191-34.733,37.537s14.925,37.628,35.185,37.628,14.2-2.171,20.713-7.779c1.809,5.065,4.7,7.327,9.588,7.327s6.693-1.538,8.231-4.432c1.176-1.99,1.537-3.98,1.537-8.864v-23.7c-1.357-10.673-9.769-23.246-20.261-30.753Zm-16.643,47.668a18.231,18.231,0,0,1-6.6-1.266,17.045,17.045,0,0,1-9.316-9.226,16.593,16.593,0,0,1-1.357-6.6,18.234,18.234,0,0,1,1.266-6.6,17.049,17.049,0,0,1,9.226-9.316,16.594,16.594,0,0,1,6.6-1.357,18.232,18.232,0,0,1,6.6,1.266,17.045,17.045,0,0,1,9.316,9.226,16.593,16.593,0,0,1,1.357,6.6,17.217,17.217,0,0,1-17.1,17.186Z" transform="translate(-93.309 -10.945)" fill="#fff"/>
  <path id="Caminho_8" data-name="Caminho 8" d="M1033.561,114.305v-54c0-6.693-4.161-11.306-10.221-11.306s-9.949,4.432-10.04,11.306v12.03c16.733,8.141,20.261,27.407,20.261,41.879Zm30.211-41.336v.452a2.076,2.076,0,0,1-2.08,2.352,2.191,2.191,0,0,1-2.171-2.352V59.583a2.2,2.2,0,0,1,2.442-2.442h3.347a8.41,8.41,0,0,1,4.7,1.085,6.884,6.884,0,0,1,3.075,5.608,6.149,6.149,0,0,1-4.251,5.517L1072,71.613a2.273,2.273,0,0,1,1.176,1.99,2.124,2.124,0,0,1-2.081,2.171c-1.176,0-.995-.181-1.447-.633l-5.879-4.884v2.623Zm1.628-6.241a3.666,3.666,0,0,0,2.352-.452,2.729,2.729,0,0,0,1.266-2.352,3.091,3.091,0,0,0-1.538-2.533c-.543-.271-.814-.271-2.171-.271h-1.538v5.517h1.628Z" transform="translate(-99.115 -8.166)" fill="#fff"/>
  <path id="Caminho_9" data-name="Caminho 9" d="M1069.619,84.238a17.819,17.819,0,1,1,17.818-17.819A17.8,17.8,0,0,1,1069.619,84.238Zm0-31.929a14.11,14.11,0,1,0,14.11,14.11,14.129,14.129,0,0,0-14.11-14.11Z" transform="translate(-102.791 -8.127)" fill="#fff"/>
</svg>
